<svg width="512" height="512" viewBox="0 0 512 512" fill="none" xmlns="http://www.w3.org/2000/svg">
  <path d="M416 248c-13.3 0-24 10.7-24 24s10.7 24 24 24 24-10.7 24-24-10.7-24-24-24zm-64 0c-13.3 0-24 10.7-24 24s10.7 24 24 24 24-10.7 24-24-10.7-24-24-24zm213.5 310.7c-18.2-32-50.2-45.7-73.5-45.7-18.5 0-34.5 8.4-43.3 16.3-21.2 18.8-41.2 30.7-76.7 30.7-35.6 0-55.5-11.9-76.7-30.7-14.8-13.2-33.7-22.2-54.5-13.4-14.2 6-24.8 16.9-42.8 13.4-18-3.5-26.8-15.9-42.8-13.4-17.8 2.7-30.7 15.8-42.8 35.6-16 26.8-38.5 40.6-60.8 40.6C80.7 591.2 64 574.5 64 546.5c0-20.7 31.9-109.7 119.2-99.5 14.5 1.7 14.5-11.6 13.9-38.4-20.8-15.1-24.5-42.1-8-59.3 9.7-10.2 29.2-10.2 40.6 1.7 5.4 5.6 7 13.4 7.5 19.2 25.2-1.4 42.4-8.7 59.3-8.7s34.1 7.3 59.3 8.7c.5-5.8 2.1-13.5 7.5-19.2 11.4-11.9 30.9-11.9 40.6-1.7 16.5 17.2 12.7 44.2-8 59.3-.6 26.7-.6 40.1 13.9 38.4 87.7-10.4 119.3 78.9 119.2 99.5 0 28-16.7 44.7-42.6 44.7-22.3 0-44.7-13.8-60.4-40.6-12.5-20.3-25.2-32.7-42.9-35.4-16-2.4-24.7 9.9-42.7 13.4-18.1 3.5-28.8-7.4-42.7-13.4-20.9-8.9-39.7.1-54.5 13.4-21.2 18.8-41.2 30.7-76.7 30.7-35.5 0-55.5-11.9-76.7-30.7C224.5 512.5 208.5 504 190 504c-23.7 0-55.3 13.7-73.5 45.7-9.5 16.8-3.3 38.2 13.5 47.7 16.8 9.5 38.2 3.3 47.7-13.5 1.2-2.2 2.7-4.2 4.4-6.1 8.5 11.5 22.2 18.2 38.1 18.2 35.5 0 55.5-11.9 76.7-30.7 14.8-13.2 33.7-22.2 54.5-13.4 18 7.6 31.1 13.4 42.8 13.4s24.8-5.8 42.8-13.4c20.9-8.8 39.7-.1 54.5 13.4 21.2 18.8 41.2 30.7 76.7 30.7 15.9 0 29.7-6.7 38.1-18.2 1.7 1.9 3.2 3.9 4.4 6.1 9.5 16.8 30.9 23.1 47.7 13.5 16.9-9.5 23.1-30.9 13.6-47.7z" transform="translate(0 -128)" fill="url(#paint0_linear_131_13)"/>
  <defs>
    <linearGradient id="paint0_linear_131_13" x1="256" y1="128" x2="256" y2="592" gradientUnits="userSpaceOnUse">
      <stop stop-color="#9D4EDD"/>
      <stop offset="1" stop-color="#4EA8DE"/>
    </linearGradient>
  </defs>
</svg>
